<?xml version="1.0" encoding="utf-8"?>
<!-- Generator: Adobe Illustrator 19.2.1, SVG Export Plug-In . SVG Version: 6.00 Build 0)  -->
<svg version="1.1" id="Layer_1" xmlns="http://www.w3.org/2000/svg" xmlns:xlink="http://www.w3.org/1999/xlink" x="0px" y="0px"
	 viewBox="0 0 300 150" style="enable-background:new 0 0 300 150;" xml:space="preserve">
<style type="text/css">
	.st0{fill:url(#SVGID_1_);}
	.st1{fill:url(#SVGID_2_);}
	.st2{fill:url(#SVGID_3_);}
	.st3{opacity:0.2;fill:url(#SVGID_4_);}
	.st4{fill:url(#SVGID_5_);}
	.st5{fill:url(#SVGID_6_);}
	.st6{fill:url(#SVGID_7_);}
	.st7{fill:url(#SVGID_8_);}
	.st8{fill:url(#SVGID_9_);}
	.st9{fill:url(#SVGID_10_);}
	.st10{fill:url(#SVGID_11_);}
	.st11{fill:url(#SVGID_12_);}
	.st12{fill:url(#SVGID_13_);}
	.st13{opacity:0.16;}
	.st14{fill:#1D1D1B;}
	.st15{fill:url(#SVGID_14_);}
	.st16{fill:url(#SVGID_15_);}
	.st17{fill:url(#SVGID_16_);}
	.st18{fill:url(#SVGID_17_);}
	.st19{opacity:0.2;fill:url(#SVGID_18_);}
	.st20{fill:url(#SVGID_19_);}
	.st21{opacity:0.2;fill:url(#SVGID_20_);}
	.st22{fill:url(#SVGID_21_);}
	.st23{fill:url(#SVGID_22_);}
	.st24{fill:url(#SVGID_23_);}
	.st25{fill:url(#SVGID_24_);}
</style>
<g>
	<g>
		<linearGradient id="SVGID_1_" gradientUnits="userSpaceOnUse" x1="178.9669" y1="69.084" x2="212.7972" y2="40.6969">
			<stop  offset="5.650790e-002" style="stop-color:#FFFFFF"/>
			<stop  offset="7.970560e-002" style="stop-color:#FAFDFE"/>
			<stop  offset="0.2282" style="stop-color:#DCF0FA"/>
			<stop  offset="0.3556" style="stop-color:#CAE8F8"/>
			<stop  offset="0.4463" style="stop-color:#C3E5F7"/>
			<stop  offset="0.4961" style="stop-color:#D9EEFA"/>
			<stop  offset="0.555" style="stop-color:#EAF6FC"/>
			<stop  offset="0.6273" style="stop-color:#F6FBFE"/>
			<stop  offset="0.7265" style="stop-color:#FDFEFF"/>
			<stop  offset="0.9779" style="stop-color:#FFFFFF"/>
		</linearGradient>
		<path class="st0" d="M183.5,29.1c0,0,23.1,28.8,30.3,47h-29L183.5,29.1z"/>
		<linearGradient id="SVGID_2_" gradientUnits="userSpaceOnUse" x1="150.0117" y1="122.6992" x2="150.0117" y2="27.8853">
			<stop  offset="3.015020e-003" style="stop-color:#348223"/>
			<stop  offset="0.4847" style="stop-color:#78B92E"/>
			<stop  offset="0.997" style="stop-color:#C5F73B"/>
		</linearGradient>
		<path class="st1" d="M24.8,91.6c0-7.2,0.8-10.7,7.2-12.1c6.4-1.3,31.3-3.3,31.3-3.3S98.5,32,100.7,30.1c2.6-2.2,3-2.2,6.9-2.2
			c0,0,71.9,0,73.6,0c2.2,0,2.6,0.2,4,3.2c1.3,2.7,16.3,42.1,16.3,42.1s68.6,14.8,71.1,15.3c2.5,0.5,2.5,1.5,2.5,3.5
			c0,2,0,30.7,0,30.7h-13.1L259,111h-48.8l-2.9,11.7H97.5l-3.2-10.6H45.9l-3.5,10.6H24.8C24.8,122.7,24.8,98.8,24.8,91.6z"/>
		<linearGradient id="SVGID_3_" gradientUnits="userSpaceOnUse" x1="150.0117" y1="146.0677" x2="150.0117" y2="108.8907">
			<stop  offset="0.4088" style="stop-color:#000000"/>
			<stop  offset="0.4175" style="stop-color:#000000;stop-opacity:0.9842"/>
			<stop  offset="0.9578" style="stop-color:#000000;stop-opacity:0"/>
		</linearGradient>
		<path class="st2" d="M24.8,107.2c0,7.9,0,15.5,0,15.5h17.6l3.5-10.6h48.4l3.2,10.6h109.8l2.9-11.7H259l3.1,11.7h13.1
			c0,0,0-7.8,0-15.5H24.8z"/>
		<linearGradient id="SVGID_4_" gradientUnits="userSpaceOnUse" x1="150.0117" y1="107.1123" x2="150.0117" y2="68.2381">
			<stop  offset="0" style="stop-color:#FFFFFF"/>
			<stop  offset="0.5574" style="stop-color:#F7F7F7;stop-opacity:0"/>
		</linearGradient>
		<path class="st3" d="M272.7,89.7c-2.5-0.5-71.1-15.3-71.1-15.3s-15-39.3-16.3-42.1c-1.4-3.1-1.8-3.2-4-3.2c-1.7,0-73.6,0-73.6,0
			c-4,0-4.4,0-6.9,2.2c-2.1,1.9-37.4,46.1-37.4,46.1s-24.8,1.9-31.3,3.3c-6.4,1.3-7.2,4.9-7.2,12.1c0,3.2,0,8,0,14.3h250.3
			c0-7.3,0-12.9,0-13.9C275.2,91.2,275.2,90.2,272.7,89.7z"/>
		<linearGradient id="SVGID_5_" gradientUnits="userSpaceOnUse" x1="32.0535" y1="130.6002" x2="32.0535" y2="101.9836">
			<stop  offset="0" style="stop-color:#5E5E5E"/>
			<stop  offset="0.2517" style="stop-color:#616161"/>
			<stop  offset="0.3921" style="stop-color:#696969"/>
			<stop  offset="0.5051" style="stop-color:#777777"/>
			<stop  offset="0.6036" style="stop-color:#8A8A8A"/>
			<stop  offset="0.6925" style="stop-color:#A4A4A4"/>
			<stop  offset="0.7746" style="stop-color:#C3C3C3"/>
			<stop  offset="0.8499" style="stop-color:#E7E7E7"/>
			<stop  offset="0.8786" style="stop-color:#F7F7F7"/>
		</linearGradient>
		<path class="st4" d="M36.3,124c0,0-5.4,0-9.6,0c-4.2,0-5-1.8-5-5.8c0-4,0-11,0-11h20.8C42.5,107.2,40.3,116.7,36.3,124z"/>
		<g>
			<linearGradient id="SVGID_6_" gradientUnits="userSpaceOnUse" x1="23.0723" y1="119.6007" x2="23.0723" y2="112.9673">
				<stop  offset="0" style="stop-color:#910009"/>
				<stop  offset="2.716124e-002" style="stop-color:#970109"/>
				<stop  offset="0.1849" style="stop-color:#B40809"/>
				<stop  offset="0.3526" style="stop-color:#CB0E08"/>
				<stop  offset="0.5327" style="stop-color:#DB1208"/>
				<stop  offset="0.7341" style="stop-color:#E51408"/>
				<stop  offset="1" style="stop-color:#E81508"/>
			</linearGradient>
			<path class="st5" d="M25.1,113H21c0,0,0,2.4,0,4.3c0,2.4,0.1,2.3,0.6,2.3c0.5,0,1.4,0,1.8,0c1.7,0,1.7-0.2,1.7-3.2
				C25.1,113.4,25.1,113,25.1,113z"/>
			<linearGradient id="SVGID_7_" gradientUnits="userSpaceOnUse" x1="23.0722" y1="112.9673" x2="23.0722" y2="109.9336">
				<stop  offset="3.015020e-003" style="stop-color:#F7DE00"/>
				<stop  offset="0.2993" style="stop-color:#F6DB00"/>
				<stop  offset="0.51" style="stop-color:#F4D201"/>
				<stop  offset="0.6942" style="stop-color:#F1C203"/>
				<stop  offset="0.862" style="stop-color:#ECAC06"/>
				<stop  offset="1" style="stop-color:#E69409"/>
			</linearGradient>
			<path class="st6" d="M25.1,113c0-1.7,0-3,0-3H21c0,0,0,1.4,0,3H25.1z"/>
		</g>
		<g>
			
				<linearGradient id="SVGID_8_" gradientUnits="userSpaceOnUse" x1="-400.7509" y1="-1027.0195" x2="-400.7509" y2="-1035.4453" gradientTransform="matrix(-1 0 0 -1 -375.2373 -939.6982)">
				<stop  offset="0" style="stop-color:#E81508"/>
				<stop  offset="0.4625" style="stop-color:#E61508"/>
				<stop  offset="0.6291" style="stop-color:#DF1308"/>
				<stop  offset="0.7478" style="stop-color:#D41008"/>
				<stop  offset="0.8438" style="stop-color:#C30C08"/>
				<stop  offset="0.9251" style="stop-color:#AD0709"/>
				<stop  offset="0.9967" style="stop-color:#920009"/>
				<stop  offset="1" style="stop-color:#910009"/>
			</linearGradient>
			<path class="st7" d="M21.8,95.7h7.4c0,0,0-3.9,0-5.9c0-2.1-0.3-2.5-1.6-2.5c-1.3,0-1.9,0-3,0c-1.4,0-2.8,0.2-2.8,3.4
				C21.8,93.9,21.8,95.7,21.8,95.7z"/>
			
				<linearGradient id="SVGID_9_" gradientUnits="userSpaceOnUse" x1="-400.7509" y1="-1035.4453" x2="-400.7509" y2="-1040.335" gradientTransform="matrix(-1 0 0 -1 -375.2373 -939.6982)">
				<stop  offset="3.015020e-003" style="stop-color:#F7DE00"/>
				<stop  offset="1" style="stop-color:#E69409"/>
			</linearGradient>
			<path class="st8" d="M21.8,95.7c0,1.8,0,4.9,0,4.9h7.4c0,0,0-3.1,0-4.9H21.8z"/>
		</g>
		<g>
			<g>
				
					<linearGradient id="SVGID_10_" gradientUnits="userSpaceOnUse" x1="70.3716" y1="133.5548" x2="70.3716" y2="91.0394" gradientTransform="matrix(1 -1.800000e-003 1.800000e-003 1 -0.1985 0.149)">
					<stop  offset="3.015020e-003" style="stop-color:#348223"/>
					<stop  offset="0.3273" style="stop-color:#217212"/>
					<stop  offset="0.6955" style="stop-color:#126605"/>
					<stop  offset="1" style="stop-color:#0D6200"/>
				</linearGradient>
				<path class="st9" d="M70.3,95.4c-15,0-27.1,11.6-27.1,25.8l54.2-0.1C97.5,106.9,85.3,95.4,70.3,95.4z"/>
				
					<linearGradient id="SVGID_11_" gradientUnits="userSpaceOnUse" x1="70.3717" y1="92.9222" x2="70.3717" y2="128.7713" gradientTransform="matrix(1 -1.800000e-003 1.800000e-003 1 -0.1985 0.149)">
					<stop  offset="3.015020e-003" style="stop-color:#D4F774"/>
					<stop  offset="0.1513" style="stop-color:#AEDD61"/>
					<stop  offset="0.3394" style="stop-color:#84C04C"/>
					<stop  offset="0.523" style="stop-color:#63A93B"/>
					<stop  offset="0.698" style="stop-color:#4B9930"/>
					<stop  offset="0.861" style="stop-color:#3D8F28"/>
					<stop  offset="1" style="stop-color:#388C26"/>
				</linearGradient>
				<path class="st10" d="M43.8,122.7c1.3-14.1,12.7-25.1,26.5-25.1c13.8,0,25.2,10.9,26.6,25l1.4,0c0,0,0,0,0,0
					c0-15.4-12.6-28-28-27.9c-15.4,0-27.9,12.6-27.9,28c0,0,0,0,0,0L43.8,122.7z"/>
			</g>
		</g>
		<linearGradient id="SVGID_12_" gradientUnits="userSpaceOnUse" x1="145.4853" y1="74.0518" x2="187.8894" y2="38.4705">
			<stop  offset="5.650790e-002" style="stop-color:#FFFFFF"/>
			<stop  offset="8.364039e-002" style="stop-color:#F7FCFF"/>
			<stop  offset="0.1597" style="stop-color:#E5F7FF"/>
			<stop  offset="0.2139" style="stop-color:#DEF5FF"/>
			<stop  offset="0.2297" style="stop-color:#E3F7FF"/>
			<stop  offset="0.2928" style="stop-color:#F3FBFF"/>
			<stop  offset="0.3651" style="stop-color:#FCFEFF"/>
			<stop  offset="0.466" style="stop-color:#FFFFFF"/>
			<stop  offset="0.6863" style="stop-color:#CAE1F9"/>
			<stop  offset="0.7986" style="stop-color:#E4EFFC"/>
			<stop  offset="0.9363" style="stop-color:#FFFFFF"/>
		</linearGradient>
		<path class="st11" d="M144.8,31.1v42.1h53.5c0,0-13.1-37.1-14.8-39.7c-1.5-2.4-1.6-2.4-5.6-2.4C173.1,31.1,144.8,31.1,144.8,31.1z
			"/>
		<linearGradient id="SVGID_13_" gradientUnits="userSpaceOnUse" x1="86.8996" y1="81.4139" x2="139.8676" y2="36.9685">
			<stop  offset="0.3709" style="stop-color:#FFFFFF"/>
			<stop  offset="0.5601" style="stop-color:#CAE1F9"/>
			<stop  offset="0.6847" style="stop-color:#EBF4FD"/>
			<stop  offset="0.7757" style="stop-color:#FFFFFF"/>
			<stop  offset="0.8043" style="stop-color:#FDFEFF"/>
			<stop  offset="0.8146" style="stop-color:#F6FAFD"/>
			<stop  offset="0.8219" style="stop-color:#EBF3FB"/>
			<stop  offset="0.8226" style="stop-color:#E9F2FB"/>
			<stop  offset="0.8826" style="stop-color:#F7FBFE"/>
			<stop  offset="0.9373" style="stop-color:#FFFFFF"/>
		</linearGradient>
		<path class="st12" d="M135.2,31.1v42.1H80.3c0,0,21.5-35.4,24.7-39c2.8-3.1,2.8-3.1,7.2-3.1C114.8,31.1,135.2,31.1,135.2,31.1z"/>
		<g class="st13">
			<path class="st14" d="M80.3,75.7c0,0,0,0.9,0.1,2.3c0,1.5,0.1,3.6,0.2,6.2c0,1.3,0.1,2.7,0.1,4.1c0,0.2,0-0.1,0-0.1
				c0,0,0.1,0.1,0.2,0.1c0.1,0.1,0.3,0.2,0.5,0.2c0.3,0.1,0.7,0.3,1,0.4c0.7,0.3,1.4,0.6,2.2,1c2.9,1.4,5.9,3.2,8.5,5.6
				c2.6,2.3,4.7,5.1,6.2,8c1.5,2.9,2.4,5.8,2.9,8.3c0.5,2.5,0.6,4.7,0.6,6.2c0,0.7,0,1.3,0,1.7c0,0.4,0,0.6,0,0.6s0-0.9-0.2-2.3
				c-0.1-1.5-0.4-3.6-1-6.1c-0.6-2.5-1.6-5.3-3.1-8c-1.5-2.8-3.6-5.4-6.1-7.7c-2.5-2.3-5.3-4.1-8.2-5.5c-0.7-0.4-1.4-0.7-2.1-1
				c-0.4-0.2-0.7-0.3-1-0.5c-0.2-0.1-0.3-0.2-0.5-0.3c-0.1-0.1-0.2-0.1-0.3-0.2c0,0-0.2-0.3-0.2-0.3l0,0c0,0,0-0.2,0-0.1l0,0l0-0.1
				c0-1.5,0.1-2.9,0.1-4.1c0-2.6,0.1-4.7,0.2-6.2C80.3,76.5,80.3,75.7,80.3,75.7z"/>
		</g>
		<g class="st13">
			<path class="st14" d="M141.5,77.6c0,0,0,0.7,0.1,1.9c0,1.2,0.1,2.9,0.2,4.9c0,2,0.1,4.4,0.2,7c0,2.6,0,5.3,0.1,8
				c0,2.7,0,5.4-0.1,8c0,2.6-0.1,4.9-0.2,7c0,2-0.1,3.7-0.2,4.9c-0.1,1.2-0.1,1.9-0.1,1.9s0-0.7-0.1-1.9c0-1.2-0.1-2.9-0.2-4.9
				c0-2-0.1-4.4-0.2-7c0-2.6,0-5.3-0.1-8c0-2.7,0-5.4,0.1-8c0-2.6,0.1-4.9,0.2-7c0-2,0.1-3.7,0.2-4.9
				C141.4,78.3,141.5,77.6,141.5,77.6z"/>
		</g>
		<g class="st13">
			<path class="st14" d="M198.3,77.6c0,0,0,0.7,0.1,1.9c0,1.2,0.1,2.9,0.2,4.9c0,2,0.1,4.4,0.2,7c0,2.6,0,5.3,0.1,8
				c0,2.7,0,5.4-0.1,8c0,2.6-0.1,4.9-0.2,7c0,2-0.1,3.7-0.2,4.9c-0.1,1.2-0.1,1.9-0.1,1.9s0-0.7-0.1-1.9c0-1.2-0.1-2.9-0.2-4.9
				c0-2-0.1-4.4-0.2-7c0-2.6,0-5.3-0.1-8c0-2.7,0-5.4,0.1-8c0-2.6,0.1-4.9,0.2-7c0-2,0.1-3.7,0.2-4.9
				C198.3,78.3,198.3,77.6,198.3,77.6z"/>
		</g>
		<linearGradient id="SVGID_14_" gradientUnits="userSpaceOnUse" x1="267.3591" y1="128.8659" x2="267.3591" y2="100.5485">
			<stop  offset="0" style="stop-color:#5E5E5E"/>
			<stop  offset="0.2517" style="stop-color:#616161"/>
			<stop  offset="0.3921" style="stop-color:#696969"/>
			<stop  offset="0.5051" style="stop-color:#777777"/>
			<stop  offset="0.6036" style="stop-color:#8A8A8A"/>
			<stop  offset="0.6925" style="stop-color:#A4A4A4"/>
			<stop  offset="0.7746" style="stop-color:#C3C3C3"/>
			<stop  offset="0.8499" style="stop-color:#E7E7E7"/>
			<stop  offset="0.8786" style="stop-color:#F7F7F7"/>
		</linearGradient>
		<path class="st15" d="M280,107.1c-0.1,0,0,5.8,0,10.3c0,2.5,0,6.7-3.5,6.7c-3.8,0-12.1,0-13.2,0c-1.1,0-8.6-17-8.6-17
			S280.1,107.1,280,107.1z"/>
		<g>
			<linearGradient id="SVGID_15_" gradientUnits="userSpaceOnUse" x1="204.3613" y1="86.9396" x2="186.1793" y2="61.8484">
				<stop  offset="0" style="stop-color:#F7F7F7"/>
				<stop  offset="0.3212" style="stop-color:#B0B0B0"/>
				<stop  offset="0.6423" style="stop-color:#6F6F6F"/>
				<stop  offset="0.875" style="stop-color:#474747"/>
				<stop  offset="0.9953" style="stop-color:#383838"/>
			</linearGradient>
			<path class="st16" d="M188.3,65.3l6.3,11.7c0,0,2.5,0,3-3.1l-9.3-9.7V65.3z"/>
			<linearGradient id="SVGID_16_" gradientUnits="userSpaceOnUse" x1="181.0297" y1="71.9086" x2="191.9484" y2="58.5786">
				<stop  offset="0.4291" style="stop-color:#8C8C8C"/>
				<stop  offset="0.5658" style="stop-color:#8F8F8F"/>
				<stop  offset="0.672" style="stop-color:#999999"/>
				<stop  offset="0.768" style="stop-color:#AAAAAA"/>
				<stop  offset="0.858" style="stop-color:#C1C1C1"/>
				<stop  offset="0.943" style="stop-color:#DFDFDF"/>
				<stop  offset="1" style="stop-color:#F7F7F7"/>
			</linearGradient>
			<path class="st17" d="M185.7,71.8h0.8c1.5,0,2.7-0.8,2.7-1.8V59.7c0-1-1.2-1.8-2.7-1.8h-0.8V71.8z"/>
		</g>
		<g>
			<linearGradient id="SVGID_17_" gradientUnits="userSpaceOnUse" x1="96.9602" y1="86.7526" x2="96.9602" y2="81.236">
				<stop  offset="0.2973" style="stop-color:#333333"/>
				<stop  offset="0.4749" style="stop-color:#787878"/>
				<stop  offset="0.6358" style="stop-color:#AFAFAF"/>
				<stop  offset="0.7736" style="stop-color:#D6D6D6"/>
				<stop  offset="0.8828" style="stop-color:#EEEEEE"/>
				<stop  offset="0.9499" style="stop-color:#F7F7F7"/>
			</linearGradient>
			<path class="st18" d="M103.5,83.3v-0.5c0-1-0.8-1.7-1.7-1.7h-9.7c-1,0-1.7,0.8-1.7,1.7v0.5H103.5z"/>
			<linearGradient id="SVGID_18_" gradientUnits="userSpaceOnUse" x1="96.9602" y1="86.5244" x2="96.9602" y2="83.2559">
				<stop  offset="0" style="stop-color:#000000;stop-opacity:0"/>
				<stop  offset="0.8581" style="stop-color:#000000;stop-opacity:0.8581"/>
				<stop  offset="1" style="stop-color:#000000"/>
			</linearGradient>
			<rect x="90.4" y="83.3" class="st19" width="13.1" height="3.3"/>
		</g>
		<g>
			<linearGradient id="SVGID_19_" gradientUnits="userSpaceOnUse" x1="154.8601" y1="86.7526" x2="154.8601" y2="81.236">
				<stop  offset="0.2973" style="stop-color:#333333"/>
				<stop  offset="0.4749" style="stop-color:#787878"/>
				<stop  offset="0.6358" style="stop-color:#AFAFAF"/>
				<stop  offset="0.7736" style="stop-color:#D6D6D6"/>
				<stop  offset="0.8828" style="stop-color:#EEEEEE"/>
				<stop  offset="0.9499" style="stop-color:#F7F7F7"/>
			</linearGradient>
			<path class="st20" d="M161.4,83.3v-0.5c0-1-0.8-1.7-1.7-1.7H150c-1,0-1.7,0.8-1.7,1.7v0.5H161.4z"/>
			<linearGradient id="SVGID_20_" gradientUnits="userSpaceOnUse" x1="154.8601" y1="86.5244" x2="154.8601" y2="83.2559">
				<stop  offset="0" style="stop-color:#000000;stop-opacity:0"/>
				<stop  offset="0.8581" style="stop-color:#000000;stop-opacity:0.8581"/>
				<stop  offset="1" style="stop-color:#000000"/>
			</linearGradient>
			<rect x="148.3" y="83.3" class="st21" width="13.1" height="3.3"/>
		</g>
		<linearGradient id="SVGID_21_" gradientUnits="userSpaceOnUse" x1="271.188" y1="109.2538" x2="271.188" y2="85.9822">
			<stop  offset="0" style="stop-color:#333333"/>
			<stop  offset="0.154" style="stop-color:#555555"/>
			<stop  offset="0.5661" style="stop-color:#ACACAC"/>
			<stop  offset="0.8566" style="stop-color:#E2E2E2"/>
			<stop  offset="0.997" style="stop-color:#F7F7F7"/>
		</linearGradient>
		<path class="st22" d="M276.6,93.3h-10.9c0,0,2.5,6.7,3.2,8.1c0.6,1.4,1.3,1.9,3.1,1.9c1.8,0,1.8,0,2.8,0c1,0,1.8-0.7,1.8-2.7
			S276.6,93.3,276.6,93.3z"/>
		<linearGradient id="SVGID_22_" gradientUnits="userSpaceOnUse" x1="272.5039" y1="102.2754" x2="272.5039" y2="94.415">
			<stop  offset="3.015020e-003" style="stop-color:#F7DE00"/>
			<stop  offset="0.1671" style="stop-color:#F9E641"/>
			<stop  offset="0.3313" style="stop-color:#FBEE7A"/>
			<stop  offset="0.4907" style="stop-color:#FCF4AA"/>
			<stop  offset="0.641" style="stop-color:#FDF9CF"/>
			<stop  offset="0.7802" style="stop-color:#FEFCE9"/>
			<stop  offset="0.904" style="stop-color:#FFFEF9"/>
			<stop  offset="1" style="stop-color:#FFFFFF"/>
		</linearGradient>
		<path class="st23" d="M276.3,94.4c-1,0-8.6,0-8.6,0s2.4,5.5,2.9,6.5c0.5,1,1,1.3,2.4,1.3c1.4,0,2.2,0,2.9,0c0.8,0,1.4-0.5,1.4-1.9
			c0-1,0-3.3,0-4.8C277.3,94.9,277.3,94.4,276.3,94.4z"/>
		<g>
			<g>
				<linearGradient id="SVGID_23_" gradientUnits="userSpaceOnUse" x1="234.2583" y1="133.5749" x2="234.2583" y2="91.062">
					<stop  offset="3.015020e-003" style="stop-color:#348223"/>
					<stop  offset="0.3273" style="stop-color:#217212"/>
					<stop  offset="0.6955" style="stop-color:#126605"/>
					<stop  offset="1" style="stop-color:#0D6200"/>
				</linearGradient>
				<path class="st24" d="M234.3,95.4c-15,0-27.1,11.6-27.1,25.7h54.2C261.4,107,249.2,95.4,234.3,95.4z"/>
				<linearGradient id="SVGID_24_" gradientUnits="userSpaceOnUse" x1="234.2583" y1="92.9446" x2="234.2583" y2="128.7918">
					<stop  offset="3.015020e-003" style="stop-color:#D4F774"/>
					<stop  offset="0.1513" style="stop-color:#AEDD61"/>
					<stop  offset="0.3394" style="stop-color:#84C04C"/>
					<stop  offset="0.523" style="stop-color:#63A93B"/>
					<stop  offset="0.698" style="stop-color:#4B9930"/>
					<stop  offset="0.861" style="stop-color:#3D8F28"/>
					<stop  offset="1" style="stop-color:#388C26"/>
				</linearGradient>
				<path class="st25" d="M207.7,122.7c1.4-14.1,12.7-25.1,26.6-25.1c13.8,0,25.2,11,26.6,25.1h1.4c0,0,0,0,0,0
					c0-15.4-12.5-28-27.9-28c-15.4,0-27.9,12.6-27.9,28c0,0,0,0,0,0H207.7z"/>
			</g>
		</g>
	</g>
</g>
</svg>
